<?xml version="1.0" encoding="UTF-8" standalone="no"?>
<svg
   xmlns:dc="http://purl.org/dc/elements/1.1/"
   xmlns:cc="http://creativecommons.org/ns#"
   xmlns:rdf="http://www.w3.org/1999/02/22-rdf-syntax-ns#"
   xmlns:svg="http://www.w3.org/2000/svg"
   xmlns="http://www.w3.org/2000/svg"
   xmlns:sodipodi="http://sodipodi.sourceforge.net/DTD/sodipodi-0.dtd"
   xmlns:inkscape="http://www.inkscape.org/namespaces/inkscape"
   width="128"
   height="128"
   version="1.1"
   id="svg889"
   sodipodi:docname="mediapart-mod.svg"
   inkscape:version="1.0.1 (3bc2e813f5, 2020-09-07)"
   inkscape:export-filename="/home/apollinaire/misc/mediapart-mod/public/mediapart-mod-128.png"
   inkscape:export-xdpi="96.000008"
   inkscape:export-ydpi="96.000008">
  <metadata
     id="metadata895">
    <rdf:RDF>
      <cc:Work
         rdf:about="">
        <dc:format>image/svg+xml</dc:format>
        <dc:type
           rdf:resource="http://purl.org/dc/dcmitype/StillImage" />
        <dc:title />
      </cc:Work>
    </rdf:RDF>
  </metadata>
  <defs
     id="defs893" />
  <sodipodi:namedview
     pagecolor="#ffffff"
     bordercolor="#666666"
     borderopacity="1"
     objecttolerance="10"
     gridtolerance="10"
     guidetolerance="10"
     inkscape:pageopacity="0"
     inkscape:pageshadow="2"
     inkscape:window-width="1920"
     inkscape:window-height="1010"
     id="namedview891"
     showgrid="true"
     showguides="true"
     inkscape:guide-bbox="true"
     inkscape:zoom="4.9492862"
     inkscape:cx="79.168816"
     inkscape:cy="64.857308"
     inkscape:window-x="0"
     inkscape:window-y="0"
     inkscape:window-maximized="1"
     inkscape:current-layer="svg889"
     inkscape:document-rotation="0">
    <sodipodi:guide
       position="-36.006553,164.36616"
       orientation="0,-1"
       id="guide903" />
    <sodipodi:guide
       position="123.22395,-0.11532411"
       orientation="0,-1"
       id="guide905" />
    <sodipodi:guide
       position="0.0040998441,-1.8316359"
       orientation="1,0"
       id="guide907" />
    <sodipodi:guide
       position="128.11988,-7.5488553"
       orientation="1,0"
       id="guide909" />
    <sodipodi:guide
       position="140.22508,-8.3501352"
       orientation="1,0"
       id="guide922" />
    <sodipodi:guide
       position="116.5784,128.0633"
       orientation="0,-1"
       id="guide924" />
  </sodipodi:namedview>
  <path
     fill="#e41d19"
     d="M 64.117951,14.735813 74.224666,-0.06326781 79.244728,17.1213 93.451151,6.1540124 92.888597,24.040486 l 16.917923,-6.058909 -6.08791,16.839132 17.97034,-0.559539 -11.01714,14.141869 17.26361,4.994464 -14.86863,10.060103 14.86863,10.061769 -17.26361,4.99391 11.01714,14.141858 -17.97034,-0.558433 6.08791,16.83914 -16.917923,-6.06057 0.562554,17.88701 -14.206423,-10.96616 -5.020062,17.18346 -10.106715,-14.79908 -10.10727,14.79908 -5.020047,-17.18346 -14.206438,10.96616 0.562015,-17.88701 -16.917926,6.06057 L 24.516217,92.09671 6.5463892,92.655143 17.564092,78.513285 0.29938576,73.519375 15.168004,63.457606 0.29938576,53.396946 17.564092,48.402489 6.5458341,34.26062 24.51566,34.820158 18.42773,17.981025 35.345657,24.039935 34.783655,6.1534602 48.99008,17.120749 54.01014,-0.0638199 Z"
     id="path883"
     style="stroke-width:0.551129" />
  <path
     fill-rule="evenodd"
     d="M 77.534489,40.834369 89.244659,51.235497 55.071392,88.880188 43.361236,78.479622 Z"
     id="path885"
     style="stroke-width:0.551129" />
  <path
     d="m 90.709934,24.864344 a 15.738315,15.567203 0 0 0 -13.838181,5.050195 15.738315,15.567203 0 0 0 1.228594,21.970995 15.738315,15.567203 0 0 0 22.213193,-1.19302 l 0.0441,-0.04801 a 15.738315,15.567203 0 0 0 3.52616,-14.078962 l -2.58158,2.843494 -1.519235,1.6742 -5.154917,5.678158 -9.924528,-2.174146 -3.249264,-9.526501 5.154909,-5.678159 1.519231,-1.6742 z m -36.215416,52.95586 a 15.738315,15.567203 0 0 0 -22.203275,1.204057 l -0.04289,0.04857 a 15.738315,15.567203 0 0 0 -3.525602,14.07896 l 4.100819,-4.518248 5.154371,-5.678701 9.92396,2.173029 3.25093,9.526507 -6.674153,7.352912 -2.580482,2.8435 a 15.738315,15.567203 0 0 0 13.837085,-5.051309 15.738315,15.567203 0 0 0 -1.230245,-21.969888 15.738315,15.567203 0 0 0 -0.01078,-0.0095 z"
     id="path887"
     style="stroke-width:0.551129" />
</svg>
