<?xml version="1.0" encoding="UTF-8" standalone="no"?>
<svg
   xmlns:dc="http://purl.org/dc/elements/1.1/"
   xmlns:cc="http://creativecommons.org/ns#"
   xmlns:rdf="http://www.w3.org/1999/02/22-rdf-syntax-ns#"
   xmlns:svg="http://www.w3.org/2000/svg"
   xmlns="http://www.w3.org/2000/svg"
   xmlns:sodipodi="http://sodipodi.sourceforge.net/DTD/sodipodi-0.dtd"
   xmlns:inkscape="http://www.inkscape.org/namespaces/inkscape"
   width="128"
   height="128"
   version="1.1"
   id="svg889"
   sodipodi:docname="mediapart-mod.svg"
   inkscape:version="1.0.1 (3bc2e813f5, 2020-09-07)"
   inkscape:export-filename="/home/apollinaire/misc/mediapart-mod/public/mediapart-mod-128.png"
   inkscape:export-xdpi="96.000008"
   inkscape:export-ydpi="96.000008">
  <metadata
     id="metadata895">
    <rdf:RDF>
      <cc:Work
         rdf:about="">
        <dc:format>image/svg+xml</dc:format>
        <dc:type
           rdf:resource="http://purl.org/dc/dcmitype/StillImage" />
        <dc:title />
      </cc:Work>
    </rdf:RDF>
  </metadata>
  <defs
     id="defs893" />
  <sodipodi:namedview
     pagecolor="#ffffff"
     bordercolor="#666666"
     borderopacity="1"
     objecttolerance="10"
     gridtolerance="10"
     guidetolerance="10"
     inkscape:pageopacity="0"
     inkscape:pageshadow="2"
     inkscape:window-width="1920"
     inkscape:window-height="1010"
     id="namedview891"
     showgrid="true"
     showguides="true"
     inkscape:guide-bbox="true"
     inkscape:zoom="3.5714884"
     inkscape:cx="19.185466"
     inkscape:cy="59.191934"
     inkscape:window-x="0"
     inkscape:window-y="0"
     inkscape:window-maximized="1"
     inkscape:current-layer="svg889"
     inkscape:document-rotation="0">
    <sodipodi:guide
       position="-0.39597315,111.7651"
       orientation="0,-1"
       id="guide903" />
    <sodipodi:guide
       position="52.07047,15.939597"
       orientation="0,-1"
       id="guide905" />
    <sodipodi:guide
       position="16.036913,86.620805"
       orientation="1,0"
       id="guide907" />
    <sodipodi:guide
       position="112.0604,70.583893"
       orientation="1,0"
       id="guide909" />
    <sodipodi:guide
       position="64.543625,67.020134"
       orientation="1,0"
       id="guide922" />
    <sodipodi:guide
       position="185.31544,63.852348"
       orientation="0,-1"
       id="guide924" />
  </sodipodi:namedview>
  <path
     fill="#e41d19"
     d="m 64.557508,18.170844 9.541109,-13.9362261 4.739122,16.1826281 13.411384,-10.327844 -0.531072,16.84361 15.971139,-5.705647 -5.74721,15.857333 16.96466,-0.526915 -10.40058,13.317333 16.29748,4.703263 -14.03653,9.473553 14.03653,9.475121 -16.29748,4.702742 10.40058,13.317323 -16.96466,-0.525874 5.74721,15.857346 -15.971139,-5.70722 0.531072,16.84412 -13.411384,-10.32678 -4.739122,16.18158 -9.541109,-13.93622 -9.541633,13.93622 -4.739109,-16.18158 -13.411397,10.32678 0.530562,-16.84412 L 21.42479,106.87859 27.17202,91.021244 10.207845,91.547118 20.60896,78.229795 4.3104453,73.527053 18.346965,64.051932 4.3104453,54.577855 20.60896,49.874598 10.207321,36.557265 27.171495,37.084179 21.424266,21.226845 37.395408,26.932493 36.864858,10.088882 50.276243,20.416727 55.015364,4.234098 Z"
     id="path883"
     style="stroke-width:0.51964" />
  <path
     fill-rule="evenodd"
     d="M 77.223211,42.747734 88.27804,52.542428 56.017225,87.99226 44.962409,78.198095 Z"
     id="path885"
     style="stroke-width:0.51964" />
  <path
     d="m 89.661314,27.708835 a 14.857546,14.659563 0 0 0 -13.06375,4.755745 14.857546,14.659563 0 0 0 1.159838,20.689985 14.857546,14.659563 0 0 0 20.970069,-1.123461 l 0.04165,-0.04521 A 14.857546,14.659563 0 0 0 102.09794,38.7278 l -2.437113,2.677705 -1.434212,1.576587 -4.866427,5.347095 -9.369118,-2.047383 -3.067424,-8.971062 4.866423,-5.347096 1.434209,-1.576587 z M 55.472635,77.577124 A 14.857546,14.659563 0 0 0 34.51193,78.710979 l -0.04049,0.04574 a 14.857546,14.659563 0 0 0 -3.328297,13.258092 l 3.871323,-4.254813 4.865915,-5.347607 9.368582,2.046331 3.068997,8.971068 -6.300645,6.9242 -2.43607,2.67771 a 14.857546,14.659563 0 0 0 13.062715,-4.756789 14.857546,14.659563 0 0 0 -1.161396,-20.688943 14.857546,14.659563 0 0 0 -0.01018,-0.0089 z"
     id="path887"
     style="stroke-width:0.51964" />
</svg>
